# xmcd
#
# Track frame offsets:
#	150
#	12407
#	21342
#	31087
#	47907
#	60462
#	70475
#	82432
#	93895
#	102785
#	116540
#	129430
#	139102
#	149340
#	161062
#	173035
#	186137
#	196037
#	207360
#	221147
#
# Disc length: 3149 seconds
#
# Revision: 1
# Processed by: cddbd v1.5.2PL0 Copyright (c) Steve Scherf et al.
# Submitted via: EZCDAudioConverter 5.3.0.1
#
DISCID=230c4b14
DTITLE=Patsy Cline - Country Love
DYEAR=1995
DGENRE=Country
TTITLE0=Always
TTITLE1=Anytime
TTITLE2=Blue Moon of Kentucky
TTITLE3=Faded Love
TTITLE4=You Made Me Love You (But I Didn't Want To Do It)
TTITLE5=Seven Lonely Hearts
TTITLE6=Does Your Heart Beat For Me
TTITLE7=Your Kinda Love
TTITLE8=You Were Only Fooling (While I Was Falling in Love)
TTITLE9=So Worng
TTITLE10=Someday (You'll Want Me To Want You)
TTITLE11=True Love
TTITLE12=Who Can I Count ON?
TTITLE13=When I Get Thru With You (You'll Love Me Too)
TTITLE14=You're Stronger Than Me
TTITLE15=Imagine That
TTITLE16=Lovin' in Vain
TTITLE17=I'll Sail My Ship Alone
TTITLE18=You Belong To Me
TTITLE19=The Wayward Wind
EXTD=
EXTT0=
EXTT1=
EXTT2=
EXTT3=
EXTT4=
EXTT5=
EXTT6=
EXTT7=
EXTT8=
EXTT9=
EXTT10=
EXTT11=
EXTT12=
EXTT13=
EXTT14=
EXTT15=
EXTT16=
EXTT17=
EXTT18=
EXTT19=
PLAYORDER=
